<svg xmlns="http://www.w3.org/2000/svg" width="512" height="512" viewBox="0 0 512 512" version="1.1"><path d="M 205.635 95.065 C 176.330 99.126, 150.203 112.534, 129.432 134.171 C 88.152 177.169, 82.547 243.923, 116.047 293.569 C 118.671 297.458, 123.108 303.146, 125.909 306.210 C 128.709 309.274, 131 312.173, 131 312.652 C 131 313.131, 123.800 320.713, 115 329.500 C 106.200 338.287, 99 345.823, 99 346.247 C 99 346.670, 124.087 346.901, 154.750 346.758 L 210.500 346.500 210.758 290.003 L 211.017 233.505 194.120 250.380 C 184.451 260.037, 176.754 266.966, 176.126 266.578 C 174.035 265.285, 165.984 253.213, 163.563 247.739 C 160.625 241.094, 158 228.951, 158 222 C 158 214.688, 160.724 202.554, 163.939 195.546 C 176.358 168.472, 206.379 153.349, 235.471 159.511 C 244.452 161.414, 255.046 166.472, 262.122 172.235 L 267.721 176.796 290.110 154.340 L 312.500 131.884 306.700 126.438 C 291.460 112.131, 269.592 101.254, 246.500 96.494 C 236.876 94.510, 215.126 93.749, 205.635 95.065 M 301 222.239 L 301 278.478 318.068 261.489 L 335.135 244.500 339.109 249 C 347.557 258.569, 354 276.364, 354 290.130 C 354 296.964, 351.355 309.141, 348.437 315.739 C 342.475 329.219, 330.988 341.063, 317.734 347.397 C 309.872 351.154, 297.974 354, 290.130 354 C 276.749 354, 260.733 348.390, 250.085 339.973 C 247.320 337.788, 244.704 336, 244.271 336 C 243.838 336, 233.599 345.891, 221.519 357.980 L 199.556 379.961 203.504 384.004 C 217.014 397.840, 242.330 410.660, 266 415.652 C 277.727 418.125, 302.253 418.128, 314 415.656 C 340.826 410.013, 361.246 399.037, 380.095 380.129 C 395.863 364.310, 404.880 349.779, 411.536 329.459 C 417.739 310.523, 419.375 291.019, 416.427 271.162 C 412.836 246.979, 402.051 223.516, 386.528 206.119 C 383.487 202.712, 381 199.609, 381 199.223 C 381 198.838, 388.307 191.205, 397.239 182.261 L 413.477 166 357.239 166 L 301 166 301 222.239" stroke="none" fill="#fafbfb" fill-rule="evenodd"/><path d="M 131.500 0.661 C 81.894 7.122, 37.944 38.308, 15.524 82.953 C 10.006 93.942, 5.744 106.079, 2.824 119.119 L 0.500 129.500 0.500 256 L 0.500 382.500 2.824 392.881 C 16.082 452.094, 59.906 495.918, 119.119 509.176 L 129.500 511.500 256 511.500 L 382.500 511.500 392.881 509.176 C 422.732 502.492, 446.731 489.360, 468.045 468.045 C 484.610 451.481, 496.323 433.096, 503.788 411.943 C 507.066 402.654, 511 385.817, 511 381.076 C 511 379.449, 511.450 377.840, 512 377.500 C 512.658 377.093, 513 335.137, 513 254.882 C 513 173.803, 512.665 133.089, 512 133.500 C 511.416 133.861, 511 132.838, 511 131.042 C 511 126.197, 507.100 109.443, 503.788 100.057 C 496.323 78.904, 484.610 60.519, 468.045 43.955 C 450.810 26.720, 431.824 14.870, 409.644 7.505 C 387.281 0.080, 398.521 0.610, 259.500 0.431 C 190.750 0.342, 133.150 0.446, 131.500 0.661 M 205.635 95.065 C 176.330 99.126, 150.203 112.534, 129.432 134.171 C 88.152 177.169, 82.547 243.923, 116.047 293.569 C 118.671 297.458, 123.108 303.146, 125.909 306.210 C 128.709 309.274, 131 312.173, 131 312.652 C 131 313.131, 123.800 320.713, 115 329.500 C 106.200 338.287, 99 345.823, 99 346.247 C 99 346.670, 124.087 346.901, 154.750 346.758 L 210.500 346.500 210.758 290.003 L 211.017 233.505 194.120 250.380 C 184.451 260.037, 176.754 266.966, 176.126 266.578 C 174.035 265.285, 165.984 253.213, 163.563 247.739 C 160.625 241.094, 158 228.951, 158 222 C 158 214.688, 160.724 202.554, 163.939 195.546 C 176.358 168.472, 206.379 153.349, 235.471 159.511 C 244.452 161.414, 255.046 166.472, 262.122 172.235 L 267.721 176.796 290.110 154.340 L 312.500 131.884 306.700 126.438 C 291.460 112.131, 269.592 101.254, 246.500 96.494 C 236.876 94.510, 215.126 93.749, 205.635 95.065 M 0.484 256 C 0.484 323.375, 0.604 350.938, 0.750 317.250 C 0.896 283.563, 0.896 228.438, 0.750 194.750 C 0.604 161.063, 0.484 188.625, 0.484 256 M 301 222.239 L 301 278.478 318.068 261.489 L 335.135 244.500 339.109 249 C 347.557 258.569, 354 276.364, 354 290.130 C 354 296.964, 351.355 309.141, 348.437 315.739 C 342.475 329.219, 330.988 341.063, 317.734 347.397 C 309.872 351.154, 297.974 354, 290.130 354 C 276.749 354, 260.733 348.390, 250.085 339.973 C 247.320 337.788, 244.704 336, 244.271 336 C 243.838 336, 233.599 345.891, 221.519 357.980 L 199.556 379.961 203.504 384.004 C 217.014 397.840, 242.330 410.660, 266 415.652 C 277.727 418.125, 302.253 418.128, 314 415.656 C 340.826 410.013, 361.246 399.037, 380.095 380.129 C 395.863 364.310, 404.880 349.779, 411.536 329.459 C 417.739 310.523, 419.375 291.019, 416.427 271.162 C 412.836 246.979, 402.051 223.516, 386.528 206.119 C 383.487 202.712, 381 199.609, 381 199.223 C 381 198.838, 388.307 191.205, 397.239 182.261 L 413.477 166 357.239 166 L 301 166 301 222.239" stroke="none" fill="#0474dd" fill-rule="evenodd"/></svg>